Coordinates
version=1
nRows=5
nColumns=40
inDegrees=yes

Units are S.I. units (second, meters, Newtons, ...)
If the header above contains a line with 'inDegrees', this indicates whether rotational values are in degrees (yes) or radians (no).

endheader
time	pelvis_tilt	pelvis_list	pelvis_rotation	pelvis_tx	pelvis_ty	pelvis_tz	hip_flexion_r	hip_adduction_r	hip_rotation_r	knee_angle_r	knee_angle_r_beta	ankle_angle_r	subtalar_angle_r	mtp_angle_r	hip_flexion_l	hip_adduction_l	hip_rotation_l	knee_angle_l	knee_angle_l_beta	ankle_angle_l	subtalar_angle_l	mtp_angle_l	lumbar_extension	lumbar_bending	lumbar_rotation	arm_flex_r	arm_add_r	arm_rot_r	elbow_flex_r	pro_sup_r	wrist_flex_r	wrist_dev_r	arm_flex_l	arm_add_l	arm_rot_l	elbow_flex_l	pro_sup_l	wrist_flex_l	wrist_dev_l
      5.90000000	     42.07648945	     -0.22290607	   -178.97089187	      0.40009087	      0.75692159	     -0.57844147	     80.20076979	    -14.90566211	      2.02738467	     35.87677318	      0.62616782	      0.71047035	      0.00000000	      0.00000000	     81.45367029	    -12.71606031	     -1.60408199	     40.01217528	      0.69834420	      2.94391593	      0.00000000	      0.00000000	    -47.77726200	     -2.06096989	      1.21305662	     64.22556021	    -21.60345563	     35.64677827	     24.77963594	     71.26764076	      0.00000000	      0.00000000	     72.35046874	     -2.24182826	      1.61219893	     14.22385894	     23.98438574	      0.00000000	      0.00000000
      5.90500000	     42.07439983	     -0.17424515	   -178.93711646	      0.40012177	      0.75746092	     -0.57837812	     80.08469894	    -14.93683874	      1.88661363	     35.72366589	      0.62349559	      0.65433848	      0.00000000	      0.00000000	     81.36086768	    -12.70958356	     -1.64772598	     39.81533272	      0.69490865	      2.85432497	      0.00000000	      0.00000000	    -47.75584366	     -1.99841049	      1.18905284	     64.17326783	    -21.57845209	     35.77316028	     24.74195022	     71.30780346	      0.00000000	      0.00000000	     72.30070924	     -2.26604054	      1.58887521	     14.21514161	     23.95765373	      0.00000000	      0.00000000
      5.91000000	     42.06497604	     -0.15731204	   -178.76493784	      0.40031937	      0.75775091	     -0.57808714	     80.04437340	    -15.11337686	      1.89443740	     35.71720647	      0.62338285	      0.65459980	      0.00000000	      0.00000000	     81.36819645	    -12.53453201	     -1.66880258	     39.80381686	      0.69470766	      2.84358298	      0.00000000	      0.00000000	    -47.73567771	     -1.84760319	      1.11005879	     64.13944870	    -21.60444840	     35.77706397	     24.72525382	     71.30920985	      0.00000000	      0.00000000	     72.31392696	     -2.24086853	      1.59313239	     14.22444972	     23.95746425	      0.00000000	      0.00000000
      5.91500000	     42.04006502	     -0.08380579	   -178.83509117	      0.40017772	      0.75843204	     -0.57830672	     79.86692961	    -15.01616160	      1.71313726	     35.49225325	      0.61945668	      0.56781424	      0.00000000	      0.00000000	     81.19481530	    -12.65168422	     -1.68379254	     39.49496041	      0.68931710	      2.69541387	      0.00000000	      0.00000000	    -47.73576005	     -1.86507946	      1.13512366	     64.02056051	    -21.51689584	     35.90819734	     24.72325576	     71.34552666	      0.00000000	      0.00000000	     72.21513364	     -2.32562825	      1.55139750	     14.20320797	     23.93509151	      0.00000000	      0.00000000
      5.92000000	     42.03199005	     -0.05836009	   -178.68430905	      0.40030593	      0.75875628	     -0.57809179	     79.82560944	    -15.16471939	      1.72436000	     35.48659686	      0.61935796	      0.56515243	      0.00000000	      0.00000000	     81.19830868	    -12.50489311	     -1.70200762	     39.48280475	      0.68910494	      2.68274305	      0.00000000	      0.00000000	    -47.72172113	     -1.73638508	      1.06678444	     63.99667699	    -21.54344769	     35.91028188	     24.70921578	     71.34640181	      0.00000000	      0.00000000	     72.22845877	     -2.30501748	      1.55412332	     14.21352741	     23.93495064	      0.00000000	      0.00000000
